<?xml version="1.0" encoding="utf-8"?>
<!-- Generator: Adobe Illustrator 23.0.0, SVG Export Plug-In . SVG Version: 6.00 Build 0)  -->
<svg version="1.1" id="레이어_1" xmlns="http://www.w3.org/2000/svg" xmlns:xlink="http://www.w3.org/1999/xlink" x="0px"
	 y="0px" viewBox="0 0 323 165" style="enable-background:new 0 0 323 165;" xml:space="preserve">
<style type="text/css">
	.st0{fill:#FE887C;}
	.st1{fill:#EDE6D3;}
</style>
<text transform="matrix(1 0 0 1 341.4375 638.6807)" style="font-family:'Hunters'; font-size:179.0228px;">u2i   b</text>
<g>
	<g>
		<path class="st0" d="M77.77,131.2c-1.05,0-2.1-0.1-3.15-0.3c-7.29-2.04-11.59-6.44-12.9-13.2c-0.59-2.89-0.89-5.91-0.89-9.06
			c0-4.27,0.72-9.65,2.17-16.16c1.44-6.5,3.25-13.07,5.42-19.7c0.98-3.09,1.77-5.74,2.36-7.98c3.22-12.41,4.83-21.83,4.83-28.27
			c0-1.05-0.1-2.67-0.3-4.88c-0.2-2.2-1.31-3.4-3.35-3.6c-2.76,0.33-6.8,4.3-12.12,11.92C54.53,47.61,49.8,56.21,45.66,65.8
			c-3.42,7.94-5.12,14.71-5.12,20.29c0,1.12,0.06,2.2,0.2,3.25c-11.03-2.89-17.5-7.45-19.4-13.69c-0.59-1.97-0.89-4-0.89-6.11
			c0-4.4,1.71-9.64,5.12-15.71c3.41-6.07,8.59-12.13,15.51-18.17s13.71-10.41,20.34-13.1c7.09-2.69,13.04-4.04,17.83-4.04
			c2.17,0,5.07,0.57,8.72,1.72c3.64,1.15,6.48,4.45,8.52,9.9c0.79,2.63,1.18,5.78,1.18,9.46c0,4.07-0.72,9.98-2.17,17.73
			c-1.44,7.75-3.58,16.81-6.4,27.19c-3.88,14.64-5.81,23.97-5.81,27.98c0,2.89,0.72,4.33,2.17,4.33c3.22,0,6.81-2.74,10.79-8.23
			c3.97-5.48,7.88-12.23,11.72-20.24c3.84-8.01,7.24-15.69,10.19-23.05s5.05-12.77,6.3-16.25l0.39-0.89
			c3.09-9.39,5.45-16.25,7.09-20.59c1.44-3.35,3.87-5.42,7.29-6.21c1.58-0.39,3.18-0.59,4.83-0.59c1.9,0,4.3,0.36,7.19,1.08
			c2.89,0.72,5.52,2,7.88,3.84c-1.91,3.02-5.04,10.08-9.41,21.18c-4.37,11.1-8.49,22.79-12.36,35.07
			c-4.33,13.79-6.5,23.64-6.5,29.55c0,3.48,0.46,6.03,1.38,7.63c0.92,1.61,2.2,2.91,3.84,3.89c-3.15,2.23-6.01,3.35-8.57,3.35
			l-1.77-0.1c-6.17-0.79-9.92-4.7-11.23-11.72c-0.66-3.22-0.99-6.73-0.99-10.54c0-4.6,0.46-9.62,1.38-15.07
			c-3.48,8.34-7.44,15.88-11.87,22.61c-4.43,6.73-9.08,11.9-13.94,15.51C85.29,129.82,81.51,131.2,77.77,131.2"/>
	</g>
	<g>
		<path class="st1" d="M142.13,120.96l4.43-16.84c5.84-3.15,12.46-7.35,19.85-12.61c7.39-5.25,13.58-10.87,18.57-16.84
			c4-4.79,6.01-9.36,6.01-13.69c0-1.12-0.13-2.2-0.39-3.25c-0.59-1.38-2-2.07-4.24-2.07c-0.99,0-2.89,0.28-5.71,0.84
			c-2.83,0.56-6.47,2.99-10.93,7.29c-4.47,4.3-7.39,10.65-8.77,19.06c-3.28-3.28-5.29-7.68-6.01-13.2c-0.13-1.18-0.2-2.4-0.2-3.64
			c0-11.82,5.65-21.28,16.94-28.37c8.54-4.86,17.2-7.29,26-7.29c2.69,0,5.15,0.26,7.39,0.79c7.88,2.04,12.31,6.14,13.3,12.31
			c0.2,1.18,0.3,2.43,0.3,3.74c0,5.12-1.81,11.16-5.42,18.12c-3.61,6.96-8.92,13.94-15.91,20.93c-6.99,6.99-14.5,12.4-22.51,16.2
			c2.1,0.59,4.24,0.89,6.4,0.89c1.05,0,2.62-0.15,4.73-0.44c2.1-0.3,4.78-0.87,8.03-1.73c3.25-0.85,6.52-1.51,9.8-1.97l-0.3,0.99
			c-0.85,3.94-1.99,7.65-3.4,11.13c-1.41,3.48-3.63,6.11-6.65,7.88c-1.84,1.12-4.17,1.68-7,1.68c-1.77,0-3.74-0.23-5.91-0.69
			c-6.76-1.58-13.66-2.37-20.69-2.37C153.88,117.81,147.98,118.86,142.13,120.96"/>
		<path class="st1" d="M227.19,117.61h-0.39c-5.58-0.59-9.33-3.09-11.23-7.49c-1.44-3.35-2.17-7.22-2.17-11.62
			c0-1.57,0.21-4.4,0.64-8.47c0.43-4.07,1.69-9.52,3.79-16.35c2.1-6.83,4.33-12.97,6.7-18.42c1.51-2.95,3.97-4.79,7.39-5.52
			c1.64-0.33,3.31-0.49,5.02-0.49c1.84,0,4.19,0.31,7.04,0.94c2.86,0.63,5.5,1.76,7.93,3.4c-1.97,2.69-4.28,6.83-6.94,12.41
			c-2.66,5.58-5.12,11.49-7.39,17.73c-2.27,6.24-3.86,11.63-4.78,16.16c-0.33,1.77-0.49,3.22-0.49,4.33c0,2.1,0.59,3.15,1.77,3.15
			c1.97,0,4.24-1.41,6.8-4.24c3.55-4.07,7.81-10.6,12.81-19.6c0.79-1.64,1.35-2.46,1.67-2.46c0.26,0,0.43,0.36,0.49,1.08
			c-0.46,5.39-2.26,10.84-5.42,16.35c-3.15,5.52-6.85,10.08-11.08,13.69C235.12,115.8,231.06,117.61,227.19,117.61 M247.38,45.6
			c-1.12,0-2.36-0.1-3.74-0.3c-7.22-0.79-10.84-3.32-10.84-7.58c0-2.82,1.12-5.71,3.35-8.67c1.84-2.43,4.92-3.64,9.26-3.64h1.28
			c5.05,0.59,8.47,1.61,10.24,3.05c1.44,1.12,2.17,2.63,2.17,4.53l-0.1,1.38c-0.33,4.86-2.23,8.21-5.71,10.05
			C251.85,45.21,249.88,45.6,247.38,45.6"/>
		<path class="st1" d="M248.66,148.39h-0.29c-5.45-0.59-8.9-3.41-10.34-8.47c-0.79-2.76-1.18-5.84-1.18-9.26
			c0-8.34,2.23-19.41,6.7-33.2c4.27-13.33,0.01-5.33,5.27-16.56c1.51-2.95,4-4.79,7.49-5.52c1.58-0.33,3.18-0.49,4.83-0.49
			c1.9,0,4.3,0.33,7.19,0.99c2.89,0.66,5.48,1.77,7.78,3.35c-1.25,1.64-3.27,5.21-6.06,10.69c-2.79,5.48,3.19-8.41-0.1-1.12
			c5.25-5.98,10.21-9.06,14.87-9.26c9.46,0.33,14.18,5.91,14.18,16.74c0,0.4-0.05,2-0.15,4.83c-0.1,2.82-0.94,7.19-2.51,13.1
			c-1.38,5.45-3.53,10.54-6.45,15.27c-2.92,4.73-6.52,8.59-10.79,11.57c-4.27,2.99-9.1,4.48-14.48,4.48c-2.56,0-4.73-0.13-6.5-0.39
			C254.77,147.31,251.62,148.39,248.66,148.39 M259.01,138.15c2.43-0.26,4.86-2.27,7.29-6.01c2.43-3.74,4.53-8.18,6.3-13.3
			c2.69-7.88,4.04-14.09,4.04-18.62c0-0.85-0.08-2.08-0.25-3.69c-0.16-1.61-1.2-2.41-3.1-2.41c-1.77,0-3.81,1.62-6.11,4.88
			c-2.3,3.25-4.43,7.21-6.4,11.87c-3.55,8.86-5.32,16.09-5.32,21.67C255.46,136.28,256.64,138.15,259.01,138.15"/>
	</g>
</g>
</svg>
